<svg width="943" height="582" viewBox="0 0 943 582" fill="none" xmlns="http://www.w3.org/2000/svg">
<path d="M4 2C4 1.01048 2.98907 0 2 0C1.01093 0 0 1.01048 0 2C0 2.98952 1.01093 4 2 4C2.98907 4 4 2.98952 4 2ZM4 38C4 37.0105 2.98907 36 2 36C1.01093 36 0 37.0105 0 38C0 38.9895 1.01093 40 2 40C2.98907 40 4 38.9895 4 38ZM4 74C4 73.0105 2.98907 72 2 72C1.01093 72 0 73.0105 0 74C0 74.9895 1.01093 76 2 76C2.98907 76 4 74.9895 4 74ZM4 110C4 109.01 2.98907 108 2 108C1.01093 108 0 109.01 0 110C0 110.99 1.01093 112 2 112C2.98907 112 4 110.99 4 110ZM4 146C4 145.01 2.98907 145 2 145C1.01093 145 0 145.01 0 146C0 146.99 1.01093 148 2 148C2.98907 148 4 146.99 4 146ZM4 183C4 182.01 2.98907 181 2 181C1.01093 181 0 182.01 0 183C0 183.99 1.01093 184 2 184C2.98907 184 4 183.99 4 183ZM4 219C4 218.01 2.98907 217 2 217C1.01093 217 0 218.01 0 219C0 219.99 1.01093 220 2 220C2.98907 220 4 219.99 4 219ZM4 255C4 254.01 2.98907 253 2 253C1.01093 253 0 254.01 0 255C0 255.99 1.01093 257 2 257C2.98907 257 4 256.072 4 255ZM4 291C4 290.01 2.98907 289 2 289C1.01093 289 0 290.01 0 291C0 291.99 1.01093 293 2 293C2.98907 293 4 291.99 4 291ZM4 327C4 326.01 2.98907 325 2 325C1.01093 325 0 326.01 0 327C0 327.99 1.01093 329 2 329C2.98907 329 4 327.99 4 327ZM4 363C4 362.01 2.98907 362 2 362C1.01093 362 0 362.01 0 363C0 363.99 1.01093 365 2 365C2.98907 364.918 4 363.99 4 363ZM4 399C4 398.01 2.98907 398 2 398C1.01093 398 0 398.01 0 399C0 399.99 1.01093 401 2 401C2.98907 401 4 399.99 4 399ZM4 436C4 435.01 2.98907 434 2 434C1.01093 434 0 435.01 0 436C0 436.99 1.01093 437 2 437C2.98907 437 4 436.99 4 436ZM4 472C4 471.01 2.98907 470 2 470C1.01093 470 0 471.01 0 472C0 472.99 1.01093 474 2 474C2.98907 474 4 472.99 4 472ZM4 508C4 507.01 2.98907 506 2 506C1.01093 506 0 507.01 0 508C0 508.99 1.01093 510 2 510C2.98907 510 4 508.99 4 508ZM4 544C4 543.01 2.98907 542 2 542C1.01093 542 0 543.01 0 544C0 544.99 1.01093 546 2 546C2.98907 546 4 544.99 4 544ZM4 580C4 579.01 2.98907 578 2 578C1.01093 578 0 579.01 0 580C0 580.99 1.01093 582 2 582C2.98907 582 4 580.99 4 580ZM943 2C943 1.01048 941.989 0 941 0C940.011 0 939 1.01048 939 2C939 2.98952 940.011 4 941 4C941.989 4 943 2.98952 943 2ZM943 38C943 37.0105 941.989 36 941 36C940.011 36 939 37.0105 939 38C939 38.9895 940.011 40 941 40C941.989 40 943 38.9895 943 38ZM943 74C943 73.0105 941.989 72 941 72C940.011 72 939 73.0105 939 74C939 74.9895 940.011 76 941 76C941.989 76 943 74.9895 943 74ZM943 110C943 109.01 941.989 108 941 108C940.011 108 939 109.01 939 110C939 110.99 940.011 112 941 112C941.989 112 943 110.99 943 110ZM943 146C943 145.01 941.989 145 941 145C940.011 145 939 145.01 939 146C939 146.99 940.011 148 941 148C941.989 148 943 146.99 943 146ZM943 183C943 182.01 941.989 181 941 181C940.011 181 939 182.01 939 183C939 183.99 940.011 184 941 184C941.989 184 943 183.99 943 183ZM943 219C943 218.01 941.989 217 941 217C940.011 217 939 218.01 939 219C939 219.99 940.011 220 941 220C941.989 220 943 219.99 943 219ZM943 255C943 254.01 941.989 253 941 253C940.011 253 939 254.01 939 255C939 255.99 940.011 257 941 257C941.989 257 943 256.072 943 255ZM943 291C943 290.01 941.989 289 941 289C940.011 289 939 290.01 939 291C939 291.99 940.011 293 941 293C941.989 293 943 291.99 943 291ZM943 327C943 326.01 941.989 325 941 325C940.011 325 939 326.01 939 327C939 327.99 940.011 329 941 329C941.989 329 943 327.99 943 327ZM943 363C943 362.01 941.989 362 941 362C940.011 362 939 362.01 939 363C939 363.99 940.011 365 941 365C941.989 364.918 943 363.99 943 363ZM943 399C943 398.01 941.989 398 941 398C940.011 398 939 398.01 939 399C939 399.99 940.011 401 941 401C941.989 401 943 399.99 943 399ZM943 436C943 435.01 941.989 434 941 434C940.011 434 939 435.01 939 436C939 436.99 940.011 437 941 437C941.989 437 943 436.99 943 436ZM943 472C943 471.01 941.989 470 941 470C940.011 470 939 471.01 939 472C939 472.99 940.011 474 941 474C941.989 474 943 472.99 943 472ZM943 508C943 507.01 941.989 506 941 506C940.011 506 939 507.01 939 508C939 508.99 940.011 510 941 510C941.989 510 943 508.99 943 508ZM943 544C943 543.01 941.989 542 941 542C940.011 542 939 543.01 939 544C939 544.99 940.011 546 941 546C941.989 546 943 544.99 943 544ZM943 580C943 579.01 941.989 578 941 578C940.011 578 939 579.01 939 580C939 580.99 940.011 582 941 582C941.989 582 943 580.99 943 580ZM907 2C907 1.01048 905.989 0 905 0C904.011 0 903 1.01048 903 2C903 2.98952 904.011 4 905 4C905.989 4 907 2.98952 907 2ZM907 38C907 37.0105 905.989 36 905 36C904.011 36 903 37.0105 903 38C903 38.9895 904.011 40 905 40C905.989 40 907 38.9895 907 38ZM907 74C907 73.0105 905.989 72 905 72C904.011 72 903 73.0105 903 74C903 74.9895 904.011 76 905 76C905.989 76 907 74.9895 907 74ZM907 110C907 109.01 905.989 108 905 108C904.011 108 903 109.01 903 110C903 110.99 904.011 112 905 112C905.989 112 907 110.99 907 110ZM907 146C907 145.01 905.989 145 905 145C904.011 145 903 145.01 903 146C903 146.99 904.011 148 905 148C905.989 148 907 146.99 907 146ZM907 183C907 182.01 905.989 181 905 181C904.011 181 903 182.01 903 183C903 183.99 904.011 184 905 184C905.989 184 907 183.99 907 183ZM907 219C907 218.01 905.989 217 905 217C904.011 217 903 218.01 903 219C903 219.99 904.011 220 905 220C905.989 220 907 219.99 907 219ZM907 255C907 254.01 905.989 253 905 253C904.011 253 903 254.01 903 255C903 255.99 904.011 257 905 257C905.989 257 907 256.072 907 255ZM907 291C907 290.01 905.989 289 905 289C904.011 289 903 290.01 903 291C903 291.99 904.011 293 905 293C905.989 293 907 291.99 907 291ZM907 327C907 326.01 905.989 325 905 325C904.011 325 903 326.01 903 327C903 327.99 904.011 329 905 329C905.989 329 907 327.99 907 327ZM907 363C907 362.01 905.989 362 905 362C904.011 362 903 362.01 903 363C903 363.99 904.011 365 905 365C905.989 364.918 907 363.99 907 363ZM907 399C907 398.01 905.989 398 905 398C904.011 398 903 398.01 903 399C903 399.99 904.011 401 905 401C905.989 401 907 399.99 907 399ZM907 436C907 435.01 905.989 434 905 434C904.011 434 903 435.01 903 436C903 436.99 904.011 437 905 437C905.989 437 907 436.99 907 436ZM907 472C907 471.01 905.989 470 905 470C904.011 470 903 471.01 903 472C903 472.99 904.011 474 905 474C905.989 474 907 472.99 907 472ZM907 508C907 507.01 905.989 506 905 506C904.011 506 903 507.01 903 508C903 508.99 904.011 510 905 510C905.989 510 907 508.99 907 508ZM907 544C907 543.01 905.989 542 905 542C904.011 542 903 543.01 903 544C903 544.99 904.011 546 905 546C905.989 546 907 544.99 907 544ZM907 580C907 579.01 905.989 578 905 578C904.011 578 903 579.01 903 580C903 580.99 904.011 582 905 582C905.989 582 907 580.99 907 580ZM871 2C871 1.01048 869.989 0 869 0C868.011 0 867 1.01048 867 2C867 2.98952 868.011 4 869 4C869.989 4 871 2.98952 871 2ZM871 38C871 37.0105 869.989 36 869 36C868.011 36 867 37.0105 867 38C867 38.9895 868.011 40 869 40C869.989 40 871 38.9895 871 38ZM871 74C871 73.0105 869.989 72 869 72C868.011 72 867 73.0105 867 74C867 74.9895 868.011 76 869 76C869.989 76 871 74.9895 871 74ZM871 110C871 109.01 869.989 108 869 108C868.011 108 867 109.01 867 110C867 110.99 868.011 112 869 112C869.989 112 871 110.99 871 110ZM871 146C871 145.01 869.989 145 869 145C868.011 145 867 145.01 867 146C867 146.99 868.011 148 869 148C869.989 148 871 146.99 871 146ZM871 183C871 182.01 869.989 181 869 181C868.011 181 867 182.01 867 183C867 183.99 868.011 184 869 184C869.989 184 871 183.99 871 183ZM871 219C871 218.01 869.989 217 869 217C868.011 217 867 218.01 867 219C867 219.99 868.011 220 869 220C869.989 220 871 219.99 871 219ZM871 255C871 254.01 869.989 253 869 253C868.011 253 867 254.01 867 255C867 255.99 868.011 257 869 257C869.989 257 871 256.072 871 255ZM871 291C871 290.01 869.989 289 869 289C868.011 289 867 290.01 867 291C867 291.99 868.011 293 869 293C869.989 293 871 291.99 871 291ZM871 327C871 326.01 869.989 325 869 325C868.011 325 867 326.01 867 327C867 327.99 868.011 329 869 329C869.989 329 871 327.99 871 327ZM871 363C871 362.01 869.989 362 869 362C868.011 362 867 362.01 867 363C867 363.99 868.011 365 869 365C869.989 364.918 871 363.99 871 363ZM871 399C871 398.01 869.989 398 869 398C868.011 398 867 398.01 867 399C867 399.99 868.011 401 869 401C869.989 401 871 399.99 871 399ZM871 436C871 435.01 869.989 434 869 434C868.011 434 867 435.01 867 436C867 436.99 868.011 437 869 437C869.989 437 871 436.99 871 436ZM871 472C871 471.01 869.989 470 869 470C868.011 470 867 471.01 867 472C867 472.99 868.011 474 869 474C869.989 474 871 472.99 871 472ZM871 508C871 507.01 869.989 506 869 506C868.011 506 867 507.01 867 508C867 508.99 868.011 510 869 510C869.989 510 871 508.99 871 508ZM871 544C871 543.01 869.989 542 869 542C868.011 542 867 543.01 867 544C867 544.99 868.011 546 869 546C869.989 546 871 544.99 871 544ZM871 580C871 579.01 869.989 578 869 578C868.011 578 867 579.01 867 580C867 580.99 868.011 582 869 582C869.989 582 871 580.99 871 580ZM835 2C835 1.01048 833.989 0 833 0C832.011 0 831 1.01048 831 2C831 2.98952 832.011 4 833 4C833.989 4 835 2.98952 835 2ZM835 38C835 37.0105 833.989 36 833 36C832.011 36 831 37.0105 831 38C831 38.9895 832.011 40 833 40C833.989 40 835 38.9895 835 38ZM835 74C835 73.0105 833.989 72 833 72C832.011 72 831 73.0105 831 74C831 74.9895 832.011 76 833 76C833.989 76 835 74.9895 835 74ZM835 110C835 109.01 833.989 108 833 108C832.011 108 831 109.01 831 110C831 110.99 832.011 112 833 112C833.989 112 835 110.99 835 110ZM835 146C835 145.01 833.989 145 833 145C832.011 145 831 145.01 831 146C831 146.99 832.011 148 833 148C833.989 148 835 146.99 835 146ZM835 183C835 182.01 833.989 181 833 181C832.011 181 831 182.01 831 183C831 183.99 832.011 184 833 184C833.989 184 835 183.99 835 183ZM835 219C835 218.01 833.989 217 833 217C832.011 217 831 218.01 831 219C831 219.99 832.011 220 833 220C833.989 220 835 219.99 835 219ZM835 255C835 254.01 833.989 253 833 253C832.011 253 831 254.01 831 255C831 255.99 832.011 257 833 257C833.989 257 835 256.072 835 255ZM835 291C835 290.01 833.989 289 833 289C832.011 289 831 290.01 831 291C831 291.99 832.011 293 833 293C833.989 293 835 291.99 835 291ZM835 327C835 326.01 833.989 325 833 325C832.011 325 831 326.01 831 327C831 327.99 832.011 329 833 329C833.989 329 835 327.99 835 327ZM835 363C835 362.01 833.989 362 833 362C832.011 362 831 362.01 831 363C831 363.99 832.011 365 833 365C833.989 364.918 835 363.99 835 363ZM835 399C835 398.01 833.989 398 833 398C832.011 398 831 398.01 831 399C831 399.99 832.011 401 833 401C833.989 401 835 399.99 835 399ZM835 436C835 435.01 833.989 434 833 434C832.011 434 831 435.01 831 436C831 436.99 832.011 437 833 437C833.989 437 835 436.99 835 436ZM835 472C835 471.01 833.989 470 833 470C832.011 470 831 471.01 831 472C831 472.99 832.011 474 833 474C833.989 474 835 472.99 835 472ZM835 508C835 507.01 833.989 506 833 506C832.011 506 831 507.01 831 508C831 508.99 832.011 510 833 510C833.989 510 835 508.99 835 508ZM835 544C835 543.01 833.989 542 833 542C832.011 542 831 543.01 831 544C831 544.99 832.011 546 833 546C833.989 546 835 544.99 835 544ZM835 580C835 579.01 833.989 578 833 578C832.011 578 831 579.01 831 580C831 580.99 832.011 582 833 582C833.989 582 835 580.99 835 580ZM799 2C799 1.01048 797.989 0 797 0C796.011 0 795 1.01048 795 2C795 2.98952 796.011 4 797 4C797.989 4 799 2.98952 799 2ZM799 38C799 37.0105 797.989 36 797 36C796.011 36 795 37.0105 795 38C795 38.9895 796.011 40 797 40C797.989 40 799 38.9895 799 38ZM799 74C799 73.0105 797.989 72 797 72C796.011 72 795 73.0105 795 74C795 74.9895 796.011 76 797 76C797.989 76 799 74.9895 799 74ZM799 110C799 109.01 797.989 108 797 108C796.011 108 795 109.01 795 110C795 110.99 796.011 112 797 112C797.989 112 799 110.99 799 110ZM799 146C799 145.01 797.989 145 797 145C796.011 145 795 145.01 795 146C795 146.99 796.011 148 797 148C797.989 148 799 146.99 799 146ZM799 183C799 182.01 797.989 181 797 181C796.011 181 795 182.01 795 183C795 183.99 796.011 184 797 184C797.989 184 799 183.99 799 183ZM799 219C799 218.01 797.989 217 797 217C796.011 217 795 218.01 795 219C795 219.99 796.011 220 797 220C797.989 220 799 219.99 799 219ZM799 255C799 254.01 797.989 253 797 253C796.011 253 795 254.01 795 255C795 255.99 796.011 257 797 257C797.989 257 799 256.072 799 255ZM799 291C799 290.01 797.989 289 797 289C796.011 289 795 290.01 795 291C795 291.99 796.011 293 797 293C797.989 293 799 291.99 799 291ZM799 327C799 326.01 797.989 325 797 325C796.011 325 795 326.01 795 327C795 327.99 796.011 329 797 329C797.989 329 799 327.99 799 327ZM799 363C799 362.01 797.989 362 797 362C796.011 362 795 362.01 795 363C795 363.99 796.011 365 797 365C797.989 364.918 799 363.99 799 363ZM799 399C799 398.01 797.989 398 797 398C796.011 398 795 398.01 795 399C795 399.99 796.011 401 797 401C797.989 401 799 399.99 799 399ZM799 436C799 435.01 797.989 434 797 434C796.011 434 795 435.01 795 436C795 436.99 796.011 437 797 437C797.989 437 799 436.99 799 436ZM799 472C799 471.01 797.989 470 797 470C796.011 470 795 471.01 795 472C795 472.99 796.011 474 797 474C797.989 474 799 472.99 799 472ZM799 508C799 507.01 797.989 506 797 506C796.011 506 795 507.01 795 508C795 508.99 796.011 510 797 510C797.989 510 799 508.99 799 508ZM799 544C799 543.01 797.989 542 797 542C796.011 542 795 543.01 795 544C795 544.99 796.011 546 797 546C797.989 546 799 544.99 799 544ZM799 580C799 579.01 797.989 578 797 578C796.011 578 795 579.01 795 580C795 580.99 796.011 582 797 582C797.989 582 799 580.99 799 580ZM762 2C762 1.01048 761.989 0 761 0C760.011 0 759 1.01048 759 2C759 2.98952 760.011 4 761 4C762.071 4 762 2.98952 762 2ZM762 38C762 37.0105 761.989 36 761 36C760.011 36 759 37.0105 759 38C759 38.9895 760.011 40 761 40C762.071 40 762 38.9895 762 38ZM762 74C762 73.0105 761.989 72 761 72C760.011 72 759 73.0105 759 74C759 74.9895 760.011 76 761 76C762.071 76 762 74.9895 762 74ZM762 110C762 109.01 761.989 108 761 108C760.011 108 759 109.01 759 110C759 110.99 760.011 112 761 112C762.071 112 762 110.99 762 110ZM762 146C762 145.01 761.989 145 761 145C760.011 145 759 145.01 759 146C759 146.99 760.011 148 761 148C762.071 148 762 146.99 762 146ZM762 183C762 182.01 761.989 181 761 181C760.011 181 759 182.01 759 183C759 183.99 760.011 184 761 184C762.071 184 762 183.99 762 183ZM762 219C762 218.01 761.989 217 761 217C760.011 217 759 218.01 759 219C759 219.99 760.011 220 761 220C762.071 220 762 219.99 762 219ZM762 255C762 254.01 761.989 253 761 253C760.011 253 759 254.01 759 255C759 255.99 760.011 257 761 257C762.071 257 762 256.072 762 255ZM762 291C762 290.01 761.989 289 761 289C760.011 289 759 290.01 759 291C759 291.99 760.011 293 761 293C762.071 293 762 291.99 762 291ZM762 327C762 326.01 761.989 325 761 325C760.011 325 759 326.01 759 327C759 327.99 760.011 329 761 329C762.071 329 762 327.99 762 327ZM762 363C762 362.01 761.989 362 761 362C760.011 362 759 362.01 759 363C759 363.99 760.011 365 761 365C762.071 364.918 762 363.99 762 363ZM762 399C762 398.01 761.989 398 761 398C760.011 398 759 398.01 759 399C759 399.99 760.011 401 761 401C762.071 401 762 399.99 762 399ZM762 436C762 435.01 761.989 434 761 434C760.011 434 759 435.01 759 436C759 436.99 760.011 437 761 437C762.071 437 762 436.99 762 436ZM762 472C762 471.01 761.989 470 761 470C760.011 470 759 471.01 759 472C759 472.99 760.011 474 761 474C762.071 474 762 472.99 762 472ZM762 508C762 507.01 761.989 506 761 506C760.011 506 759 507.01 759 508C759 508.99 760.011 510 761 510C762.071 510 762 508.99 762 508ZM762 544C762 543.01 761.989 542 761 542C760.011 542 759 543.01 759 544C759 544.99 760.011 546 761 546C762.071 546 762 544.99 762 544ZM762 580C762 579.01 761.989 578 761 578C760.011 578 759 579.01 759 580C759 580.99 760.011 582 761 582C762.071 582 762 580.99 762 580ZM726 2C726 1.01048 724.989 0 724 0C723.011 0 723 1.01048 723 2C723 2.98952 723.011 4 724 4C724.989 4 726 2.98952 726 2ZM726 38C726 37.0105 724.989 36 724 36C723.011 36 723 37.0105 723 38C723 38.9895 723.011 40 724 40C724.989 40 726 38.9895 726 38ZM726 74C726 73.0105 724.989 72 724 72C723.011 72 723 73.0105 723 74C723 74.9895 723.011 76 724 76C724.989 76 726 74.9895 726 74ZM726 110C726 109.01 724.989 108 724 108C723.011 108 723 109.01 723 110C723 110.99 723.011 112 724 112C724.989 112 726 110.99 726 110ZM726 146C726 145.01 724.989 145 724 145C723.011 145 723 145.01 723 146C723 146.99 723.011 148 724 148C724.989 148 726 146.99 726 146ZM726 183C726 182.01 724.989 181 724 181C723.011 181 723 182.01 723 183C723 183.99 723.011 184 724 184C724.989 184 726 183.99 726 183ZM726 219C726 218.01 724.989 217 724 217C723.011 217 723 218.01 723 219C723 219.99 723.011 220 724 220C724.989 220 726 219.99 726 219ZM726 255C726 254.01 724.989 253 724 253C723.011 253 723 254.01 723 255C723 255.99 723.011 257 724 257C724.989 257 726 256.072 726 255ZM726 291C726 290.01 724.989 289 724 289C723.011 289 723 290.01 723 291C723 291.99 723.011 293 724 293C724.989 293 726 291.99 726 291ZM726 327C726 326.01 724.989 325 724 325C723.011 325 723 326.01 723 327C723 327.99 723.011 329 724 329C724.989 329 726 327.99 726 327ZM726 363C726 362.01 724.989 362 724 362C723.011 362 723 362.01 723 363C723 363.99 723.011 365 724 365C724.989 364.918 726 363.99 726 363ZM726 399C726 398.01 724.989 398 724 398C723.011 398 723 398.01 723 399C723 399.99 723.011 401 724 401C724.989 401 726 399.99 726 399ZM726 436C726 435.01 724.989 434 724 434C723.011 434 723 435.01 723 436C723 436.99 723.011 437 724 437C724.989 437 726 436.99 726 436ZM726 472C726 471.01 724.989 470 724 470C723.011 470 723 471.01 723 472C723 472.99 723.011 474 724 474C724.989 474 726 472.99 726 472ZM726 508C726 507.01 724.989 506 724 506C723.011 506 723 507.01 723 508C723 508.99 723.011 510 724 510C724.989 510 726 508.99 726 508ZM726 544C726 543.01 724.989 542 724 542C723.011 542 723 543.01 723 544C723 544.99 723.011 546 724 546C724.989 546 726 544.99 726 544ZM726 580C726 579.01 724.989 578 724 578C723.011 578 723 579.01 723 580C723 580.99 723.011 582 724 582C724.989 582 726 580.99 726 580ZM690 2C690 1.01048 688.989 0 688 0C687.011 0 687 1.01048 687 2C687 2.98952 687.011 4 688 4C688.989 4 690 2.98952 690 2ZM690 38C690 37.0105 688.989 36 688 36C687.011 36 687 37.0105 687 38C687 38.9895 687.011 40 688 40C688.989 40 690 38.9895 690 38ZM690 74C690 73.0105 688.989 72 688 72C687.011 72 687 73.0105 687 74C687 74.9895 687.011 76 688 76C688.989 76 690 74.9895 690 74ZM690 110C690 109.01 688.989 108 688 108C687.011 108 687 109.01 687 110C687 110.99 687.011 112 688 112C688.989 112 690 110.99 690 110ZM690 146C690 145.01 688.989 145 688 145C687.011 145 687 145.01 687 146C687 146.99 687.011 148 688 148C688.989 148 690 146.99 690 146ZM690 183C690 182.01 688.989 181 688 181C687.011 181 687 182.01 687 183C687 183.99 687.011 184 688 184C688.989 184 690 183.99 690 183ZM690 219C690 218.01 688.989 217 688 217C687.011 217 687 218.01 687 219C687 219.99 687.011 220 688 220C688.989 220 690 219.99 690 219ZM690 255C690 254.01 688.989 253 688 253C687.011 253 687 254.01 687 255C687 255.99 687.011 257 688 257C688.989 257 690 256.072 690 255ZM690 291C690 290.01 688.989 289 688 289C687.011 289 687 290.01 687 291C687 291.99 687.011 293 688 293C688.989 293 690 291.99 690 291ZM690 327C690 326.01 688.989 325 688 325C687.011 325 687 326.01 687 327C687 327.99 687.011 329 688 329C688.989 329 690 327.99 690 327ZM690 363C690 362.01 688.989 362 688 362C687.011 362 687 362.01 687 363C687 363.99 687.011 365 688 365C688.989 364.918 690 363.99 690 363ZM690 399C690 398.01 688.989 398 688 398C687.011 398 687 398.01 687 399C687 399.99 687.011 401 688 401C688.989 401 690 399.99 690 399ZM690 436C690 435.01 688.989 434 688 434C687.011 434 687 435.01 687 436C687 436.99 687.011 437 688 437C688.989 437 690 436.99 690 436ZM690 472C690 471.01 688.989 470 688 470C687.011 470 687 471.01 687 472C687 472.99 687.011 474 688 474C688.989 474 690 472.99 690 472ZM690 508C690 507.01 688.989 506 688 506C687.011 506 687 507.01 687 508C687 508.99 687.011 510 688 510C688.989 510 690 508.99 690 508ZM690 544C690 543.01 688.989 542 688 542C687.011 542 687 543.01 687 544C687 544.99 687.011 546 688 546C688.989 546 690 544.99 690 544ZM690 580C690 579.01 688.989 578 688 578C687.011 578 687 579.01 687 580C687 580.99 687.011 582 688 582C688.989 582 690 580.99 690 580ZM654 2C654 1.01048 652.989 0 652 0C651.011 0 650 1.01048 650 2C650 2.98952 651.011 4 652 4C653.071 4 654 2.98952 654 2ZM654 38C654 37.0105 652.989 36 652 36C651.011 36 650 37.0105 650 38C650 38.9895 651.011 40 652 40C653.071 40 654 38.9895 654 38ZM654 74C654 73.0105 652.989 72 652 72C651.011 72 650 73.0105 650 74C650 74.9895 651.011 76 652 76C653.071 76 654 74.9895 654 74ZM654 110C654 109.01 652.989 108 652 108C651.011 108 650 109.01 650 110C650 110.99 651.011 112 652 112C653.071 112 654 110.99 654 110ZM654 146C654 145.01 652.989 145 652 145C651.011 145 650 145.01 650 146C650 146.99 651.011 148 652 148C653.071 148 654 146.99 654 146ZM654 183C654 182.01 652.989 181 652 181C651.011 181 650 182.01 650 183C650 183.99 651.011 184 652 184C653.071 184 654 183.99 654 183ZM654 219C654 218.01 652.989 217 652 217C651.011 217 650 218.01 650 219C650 219.99 651.011 220 652 220C653.071 220 654 219.99 654 219ZM654 255C654 254.01 652.989 253 652 253C651.011 253 650 254.01 650 255C650 255.99 651.011 257 652 257C653.071 257 654 256.072 654 255ZM654 291C654 290.01 652.989 289 652 289C651.011 289 650 290.01 650 291C650 291.99 651.011 293 652 293C653.071 293 654 291.99 654 291ZM654 327C654 326.01 652.989 325 652 325C651.011 325 650 326.01 650 327C650 327.99 651.011 329 652 329C653.071 329 654 327.99 654 327ZM654 363C654 362.01 652.989 362 652 362C651.011 362 650 362.01 650 363C650 363.99 651.011 365 652 365C653.071 364.918 654 363.99 654 363ZM654 399C654 398.01 652.989 398 652 398C651.011 398 650 398.01 650 399C650 399.99 651.011 401 652 401C653.071 401 654 399.99 654 399ZM654 436C654 435.01 652.989 434 652 434C651.011 434 650 435.01 650 436C650 436.99 651.011 437 652 437C653.071 437 654 436.99 654 436ZM654 472C654 471.01 652.989 470 652 470C651.011 470 650 471.01 650 472C650 472.99 651.011 474 652 474C653.071 474 654 472.99 654 472ZM654 508C654 507.01 652.989 506 652 506C651.011 506 650 507.01 650 508C650 508.99 651.011 510 652 510C653.071 510 654 508.99 654 508ZM654 544C654 543.01 652.989 542 652 542C651.011 542 650 543.01 650 544C650 544.99 651.011 546 652 546C653.071 546 654 544.99 654 544ZM654 580C654 579.01 652.989 578 652 578C651.011 578 650 579.01 650 580C650 580.99 651.011 582 652 582C653.071 582 654 580.99 654 580ZM618 2C618 1.01048 616.989 0 616 0C615.011 0 614 1.01048 614 2C614 2.98952 615.011 4 616 4C616.989 4 618 2.98952 618 2ZM618 38C618 37.0105 616.989 36 616 36C615.011 36 614 37.0105 614 38C614 38.9895 615.011 40 616 40C616.989 40 618 38.9895 618 38ZM618 74C618 73.0105 616.989 72 616 72C615.011 72 614 73.0105 614 74C614 74.9895 615.011 76 616 76C616.989 76 618 74.9895 618 74ZM618 110C618 109.01 616.989 108 616 108C615.011 108 614 109.01 614 110C614 110.99 615.011 112 616 112C616.989 112 618 110.99 618 110ZM618 146C618 145.01 616.989 145 616 145C615.011 145 614 145.01 614 146C614 146.99 615.011 148 616 148C616.989 148 618 146.99 618 146ZM618 183C618 182.01 616.989 181 616 181C615.011 181 614 182.01 614 183C614 183.99 615.011 184 616 184C616.989 184 618 183.99 618 183ZM618 219C618 218.01 616.989 217 616 217C615.011 217 614 218.01 614 219C614 219.99 615.011 220 616 220C616.989 220 618 219.99 618 219ZM618 255C618 254.01 616.989 253 616 253C615.011 253 614 254.01 614 255C614 255.99 615.011 257 616 257C616.989 257 618 256.072 618 255ZM618 291C618 290.01 616.989 289 616 289C615.011 289 614 290.01 614 291C614 291.99 615.011 293 616 293C616.989 293 618 291.99 618 291ZM618 327C618 326.01 616.989 325 616 325C615.011 325 614 326.01 614 327C614 327.99 615.011 329 616 329C616.989 329 618 327.99 618 327ZM618 363C618 362.01 616.989 362 616 362C615.011 362 614 362.01 614 363C614 363.99 615.011 365 616 365C616.989 364.918 618 363.99 618 363ZM618 399C618 398.01 616.989 398 616 398C615.011 398 614 398.01 614 399C614 399.99 615.011 401 616 401C616.989 401 618 399.99 618 399ZM618 436C618 435.01 616.989 434 616 434C615.011 434 614 435.01 614 436C614 436.99 615.011 437 616 437C616.989 437 618 436.99 618 436ZM618 472C618 471.01 616.989 470 616 470C615.011 470 614 471.01 614 472C614 472.99 615.011 474 616 474C616.989 474 618 472.99 618 472ZM618 508C618 507.01 616.989 506 616 506C615.011 506 614 507.01 614 508C614 508.99 615.011 510 616 510C616.989 510 618 508.99 618 508ZM618 544C618 543.01 616.989 542 616 542C615.011 542 614 543.01 614 544C614 544.99 615.011 546 616 546C616.989 546 618 544.99 618 544ZM618 580C618 579.01 616.989 578 616 578C615.011 578 614 579.01 614 580C614 580.99 615.011 582 616 582C616.989 582 618 580.99 618 580ZM582 2C582 1.01048 580.989 0 580 0C579.011 0 578 1.01048 578 2C578 2.98952 579.011 4 580 4C580.989 4 582 2.98952 582 2ZM582 38C582 37.0105 580.989 36 580 36C579.011 36 578 37.0105 578 38C578 38.9895 579.011 40 580 40C580.989 40 582 38.9895 582 38ZM582 74C582 73.0105 580.989 72 580 72C579.011 72 578 73.0105 578 74C578 74.9895 579.011 76 580 76C580.989 76 582 74.9895 582 74ZM582 110C582 109.01 580.989 108 580 108C579.011 108 578 109.01 578 110C578 110.99 579.011 112 580 112C580.989 112 582 110.99 582 110ZM582 146C582 145.01 580.989 145 580 145C579.011 145 578 145.01 578 146C578 146.99 579.011 148 580 148C580.989 148 582 146.99 582 146ZM582 183C582 182.01 580.989 181 580 181C579.011 181 578 182.01 578 183C578 183.99 579.011 184 580 184C580.989 184 582 183.99 582 183ZM582 219C582 218.01 580.989 217 580 217C579.011 217 578 218.01 578 219C578 219.99 579.011 220 580 220C580.989 220 582 219.99 582 219ZM582 255C582 254.01 580.989 253 580 253C579.011 253 578 254.01 578 255C578 255.99 579.011 257 580 257C580.989 257 582 256.072 582 255ZM582 291C582 290.01 580.989 289 580 289C579.011 289 578 290.01 578 291C578 291.99 579.011 293 580 293C580.989 293 582 291.99 582 291ZM582 327C582 326.01 580.989 325 580 325C579.011 325 578 326.01 578 327C578 327.99 579.011 329 580 329C580.989 329 582 327.99 582 327ZM582 363C582 362.01 580.989 362 580 362C579.011 362 578 362.01 578 363C578 363.99 579.011 365 580 365C580.989 364.918 582 363.99 582 363ZM582 399C582 398.01 580.989 398 580 398C579.011 398 578 398.01 578 399C578 399.99 579.011 401 580 401C580.989 401 582 399.99 582 399ZM582 436C582 435.01 580.989 434 580 434C579.011 434 578 435.01 578 436C578 436.99 579.011 437 580 437C580.989 437 582 436.99 582 436ZM582 472C582 471.01 580.989 470 580 470C579.011 470 578 471.01 578 472C578 472.99 579.011 474 580 474C580.989 474 582 472.99 582 472ZM582 508C582 507.01 580.989 506 580 506C579.011 506 578 507.01 578 508C578 508.99 579.011 510 580 510C580.989 510 582 508.99 582 508ZM582 544C582 543.01 580.989 542 580 542C579.011 542 578 543.01 578 544C578 544.99 579.011 546 580 546C580.989 546 582 544.99 582 544ZM582 580C582 579.01 580.989 578 580 578C579.011 578 578 579.01 578 580C578 580.99 579.011 582 580 582C580.989 582 582 580.99 582 580ZM546 2C546 1.01048 544.989 0 544 0C543.011 0 542 1.01048 542 2C542 2.98952 543.011 4 544 4C544.989 4 546 2.98952 546 2ZM546 38C546 37.0105 544.989 36 544 36C543.011 36 542 37.0105 542 38C542 38.9895 543.011 40 544 40C544.989 40 546 38.9895 546 38ZM546 74C546 73.0105 544.989 72 544 72C543.011 72 542 73.0105 542 74C542 74.9895 543.011 76 544 76C544.989 76 546 74.9895 546 74ZM546 110C546 109.01 544.989 108 544 108C543.011 108 542 109.01 542 110C542 110.99 543.011 112 544 112C544.989 112 546 110.99 546 110ZM546 146C546 145.01 544.989 145 544 145C543.011 145 542 145.01 542 146C542 146.99 543.011 148 544 148C544.989 148 546 146.99 546 146ZM546 183C546 182.01 544.989 181 544 181C543.011 181 542 182.01 542 183C542 183.99 543.011 184 544 184C544.989 184 546 183.99 546 183ZM546 219C546 218.01 544.989 217 544 217C543.011 217 542 218.01 542 219C542 219.99 543.011 220 544 220C544.989 220 546 219.99 546 219ZM546 255C546 254.01 544.989 253 544 253C543.011 253 542 254.01 542 255C542 255.99 543.011 257 544 257C544.989 257 546 256.072 546 255ZM546 291C546 290.01 544.989 289 544 289C543.011 289 542 290.01 542 291C542 291.99 543.011 293 544 293C544.989 293 546 291.99 546 291ZM546 327C546 326.01 544.989 325 544 325C543.011 325 542 326.01 542 327C542 327.99 543.011 329 544 329C544.989 329 546 327.99 546 327ZM546 363C546 362.01 544.989 362 544 362C543.011 362 542 362.01 542 363C542 363.99 543.011 365 544 365C544.989 364.918 546 363.99 546 363ZM546 399C546 398.01 544.989 398 544 398C543.011 398 542 398.01 542 399C542 399.99 543.011 401 544 401C544.989 401 546 399.99 546 399ZM546 436C546 435.01 544.989 434 544 434C543.011 434 542 435.01 542 436C542 436.99 543.011 437 544 437C544.989 437 546 436.99 546 436ZM546 472C546 471.01 544.989 470 544 470C543.011 470 542 471.01 542 472C542 472.99 543.011 474 544 474C544.989 474 546 472.99 546 472ZM546 508C546 507.01 544.989 506 544 506C543.011 506 542 507.01 542 508C542 508.99 543.011 510 544 510C544.989 510 546 508.99 546 508ZM546 544C546 543.01 544.989 542 544 542C543.011 542 542 543.01 542 544C542 544.99 543.011 546 544 546C544.989 546 546 544.99 546 544ZM546 580C546 579.01 544.989 578 544 578C543.011 578 542 579.01 542 580C542 580.99 543.011 582 544 582C544.989 582 546 580.99 546 580ZM509 2C509 1.01048 508.989 0 508 0C507.011 0 506 1.01048 506 2C506 2.98952 507.011 4 508 4C508.989 4 509 2.98952 509 2ZM509 38C509 37.0105 508.989 36 508 36C507.011 36 506 37.0105 506 38C506 38.9895 507.011 40 508 40C508.989 40 509 38.9895 509 38ZM509 74C509 73.0105 508.989 72 508 72C507.011 72 506 73.0105 506 74C506 74.9895 507.011 76 508 76C508.989 76 509 74.9895 509 74ZM509 110C509 109.01 508.989 108 508 108C507.011 108 506 109.01 506 110C506 110.99 507.011 112 508 112C508.989 112 509 110.99 509 110ZM509 146C509 145.01 508.989 145 508 145C507.011 145 506 145.01 506 146C506 146.99 507.011 148 508 148C508.989 148 509 146.99 509 146ZM509 183C509 182.01 508.989 181 508 181C507.011 181 506 182.01 506 183C506 183.99 507.011 184 508 184C508.989 184 509 183.99 509 183ZM509 219C509 218.01 508.989 217 508 217C507.011 217 506 218.01 506 219C506 219.99 507.011 220 508 220C508.989 220 509 219.99 509 219ZM509 255C509 254.01 508.989 253 508 253C507.011 253 506 254.01 506 255C506 255.99 507.011 257 508 257C508.989 257 509 256.072 509 255ZM509 291C509 290.01 508.989 289 508 289C507.011 289 506 290.01 506 291C506 291.99 507.011 293 508 293C508.989 293 509 291.99 509 291ZM509 327C509 326.01 508.989 325 508 325C507.011 325 506 326.01 506 327C506 327.99 507.011 329 508 329C508.989 329 509 327.99 509 327ZM509 363C509 362.01 508.989 362 508 362C507.011 362 506 362.01 506 363C506 363.99 507.011 365 508 365C508.989 364.918 509 363.99 509 363ZM509 399C509 398.01 508.989 398 508 398C507.011 398 506 398.01 506 399C506 399.99 507.011 401 508 401C508.989 401 509 399.99 509 399ZM509 436C509 435.01 508.989 434 508 434C507.011 434 506 435.01 506 436C506 436.99 507.011 437 508 437C508.989 437 509 436.99 509 436ZM509 472C509 471.01 508.989 470 508 470C507.011 470 506 471.01 506 472C506 472.99 507.011 474 508 474C508.989 474 509 472.99 509 472ZM509 508C509 507.01 508.989 506 508 506C507.011 506 506 507.01 506 508C506 508.99 507.011 510 508 510C508.989 510 509 508.99 509 508ZM509 544C509 543.01 508.989 542 508 542C507.011 542 506 543.01 506 544C506 544.99 507.011 546 508 546C508.989 546 509 544.99 509 544ZM509 580C509 579.01 508.989 578 508 578C507.011 578 506 579.01 506 580C506 580.99 507.011 582 508 582C508.989 582 509 580.99 509 580ZM473 2C473 1.01048 472.989 0 472 0C471.011 0 470 1.01048 470 2C470 2.98952 471.011 4 472 4C472.989 4 473 2.98952 473 2ZM473 38C473 37.0105 472.989 36 472 36C471.011 36 470 37.0105 470 38C470 38.9895 471.011 40 472 40C472.989 40 473 38.9895 473 38ZM473 74C473 73.0105 472.989 72 472 72C471.011 72 470 73.0105 470 74C470 74.9895 471.011 76 472 76C472.989 76 473 74.9895 473 74ZM473 110C473 109.01 472.989 108 472 108C471.011 108 470 109.01 470 110C470 110.99 471.011 112 472 112C472.989 112 473 110.99 473 110ZM473 146C473 145.01 472.989 145 472 145C471.011 145 470 145.01 470 146C470 146.99 471.011 148 472 148C472.989 148 473 146.99 473 146ZM473 183C473 182.01 472.989 181 472 181C471.011 181 470 182.01 470 183C470 183.99 471.011 184 472 184C472.989 184 473 183.99 473 183ZM473 219C473 218.01 472.989 217 472 217C471.011 217 470 218.01 470 219C470 219.99 471.011 220 472 220C472.989 220 473 219.99 473 219ZM473 255C473 254.01 472.989 253 472 253C471.011 253 470 254.01 470 255C470 255.99 471.011 257 472 257C472.989 257 473 256.072 473 255ZM473 291C473 290.01 472.989 289 472 289C471.011 289 470 290.01 470 291C470 291.99 471.011 293 472 293C472.989 293 473 291.99 473 291ZM473 327C473 326.01 472.989 325 472 325C471.011 325 470 326.01 470 327C470 327.99 471.011 329 472 329C472.989 329 473 327.99 473 327ZM473 363C473 362.01 472.989 362 472 362C471.011 362 470 362.01 470 363C470 363.99 471.011 365 472 365C472.989 364.918 473 363.99 473 363ZM473 399C473 398.01 472.989 398 472 398C471.011 398 470 398.01 470 399C470 399.99 471.011 401 472 401C472.989 401 473 399.99 473 399ZM473 436C473 435.01 472.989 434 472 434C471.011 434 470 435.01 470 436C470 436.99 471.011 437 472 437C472.989 437 473 436.99 473 436ZM473 472C473 471.01 472.989 470 472 470C471.011 470 470 471.01 470 472C470 472.99 471.011 474 472 474C472.989 474 473 472.99 473 472ZM473 508C473 507.01 472.989 506 472 506C471.011 506 470 507.01 470 508C470 508.99 471.011 510 472 510C472.989 510 473 508.99 473 508ZM473 544C473 543.01 472.989 542 472 542C471.011 542 470 543.01 470 544C470 544.99 471.011 546 472 546C472.989 546 473 544.99 473 544ZM473 580C473 579.01 472.989 578 472 578C471.011 578 470 579.01 470 580C470 580.99 471.011 582 472 582C472.989 582 473 580.99 473 580ZM437 2C437 1.01048 435.989 0 435 0C434.011 0 434 1.01048 434 2C434 2.98952 434.011 4 435 4C435.989 4 437 2.98952 437 2ZM437 38C437 37.0105 435.989 36 435 36C434.011 36 434 37.0105 434 38C434 38.9895 434.011 40 435 40C435.989 40 437 38.9895 437 38ZM437 74C437 73.0105 435.989 72 435 72C434.011 72 434 73.0105 434 74C434 74.9895 434.011 76 435 76C435.989 76 437 74.9895 437 74ZM437 110C437 109.01 435.989 108 435 108C434.011 108 434 109.01 434 110C434 110.99 434.011 112 435 112C435.989 112 437 110.99 437 110ZM437 146C437 145.01 435.989 145 435 145C434.011 145 434 145.01 434 146C434 146.99 434.011 148 435 148C435.989 148 437 146.99 437 146ZM437 183C437 182.01 435.989 181 435 181C434.011 181 434 182.01 434 183C434 183.99 434.011 184 435 184C435.989 184 437 183.99 437 183ZM437 219C437 218.01 435.989 217 435 217C434.011 217 434 218.01 434 219C434 219.99 434.011 220 435 220C435.989 220 437 219.99 437 219ZM437 255C437 254.01 435.989 253 435 253C434.011 253 434 254.01 434 255C434 255.99 434.011 257 435 257C435.989 257 437 256.072 437 255ZM437 291C437 290.01 435.989 289 435 289C434.011 289 434 290.01 434 291C434 291.99 434.011 293 435 293C435.989 293 437 291.99 437 291ZM437 327C437 326.01 435.989 325 435 325C434.011 325 434 326.01 434 327C434 327.99 434.011 329 435 329C435.989 329 437 327.99 437 327ZM437 363C437 362.01 435.989 362 435 362C434.011 362 434 362.01 434 363C434 363.99 434.011 365 435 365C435.989 364.918 437 363.99 437 363ZM437 399C437 398.01 435.989 398 435 398C434.011 398 434 398.01 434 399C434 399.99 434.011 401 435 401C435.989 401 437 399.99 437 399ZM437 436C437 435.01 435.989 434 435 434C434.011 434 434 435.01 434 436C434 436.99 434.011 437 435 437C435.989 437 437 436.99 437 436ZM437 472C437 471.01 435.989 470 435 470C434.011 470 434 471.01 434 472C434 472.99 434.011 474 435 474C435.989 474 437 472.99 437 472ZM437 508C437 507.01 435.989 506 435 506C434.011 506 434 507.01 434 508C434 508.99 434.011 510 435 510C435.989 510 437 508.99 437 508ZM437 544C437 543.01 435.989 542 435 542C434.011 542 434 543.01 434 544C434 544.99 434.011 546 435 546C435.989 546 437 544.99 437 544ZM437 580C437 579.01 435.989 578 435 578C434.011 578 434 579.01 434 580C434 580.99 434.011 582 435 582C435.989 582 437 580.99 437 580ZM401 2C401 1.01048 399.989 0 399 0C398.011 0 397 1.01048 397 2C397 2.98952 398.011 4 399 4C399.989 4 401 2.98952 401 2ZM401 38C401 37.0105 399.989 36 399 36C398.011 36 397 37.0105 397 38C397 38.9895 398.011 40 399 40C399.989 40 401 38.9895 401 38ZM401 74C401 73.0105 399.989 72 399 72C398.011 72 397 73.0105 397 74C397 74.9895 398.011 76 399 76C399.989 76 401 74.9895 401 74ZM401 110C401 109.01 399.989 108 399 108C398.011 108 397 109.01 397 110C397 110.99 398.011 112 399 112C399.989 112 401 110.99 401 110ZM401 146C401 145.01 399.989 145 399 145C398.011 145 397 145.01 397 146C397 146.99 398.011 148 399 148C399.989 148 401 146.99 401 146ZM401 183C401 182.01 399.989 181 399 181C398.011 181 397 182.01 397 183C397 183.99 398.011 184 399 184C399.989 184 401 183.99 401 183ZM401 219C401 218.01 399.989 217 399 217C398.011 217 397 218.01 397 219C397 219.99 398.011 220 399 220C399.989 220 401 219.99 401 219ZM401 255C401 254.01 399.989 253 399 253C398.011 253 397 254.01 397 255C397 255.99 398.011 257 399 257C399.989 257 401 256.072 401 255ZM401 291C401 290.01 399.989 289 399 289C398.011 289 397 290.01 397 291C397 291.99 398.011 293 399 293C399.989 293 401 291.99 401 291ZM401 327C401 326.01 399.989 325 399 325C398.011 325 397 326.01 397 327C397 327.99 398.011 329 399 329C399.989 329 401 327.99 401 327ZM401 363C401 362.01 399.989 362 399 362C398.011 362 397 362.01 397 363C397 363.99 398.011 365 399 365C399.989 364.918 401 363.99 401 363ZM401 399C401 398.01 399.989 398 399 398C398.011 398 397 398.01 397 399C397 399.99 398.011 401 399 401C399.989 401 401 399.99 401 399ZM401 436C401 435.01 399.989 434 399 434C398.011 434 397 435.01 397 436C397 436.99 398.011 437 399 437C399.989 437 401 436.99 401 436ZM401 472C401 471.01 399.989 470 399 470C398.011 470 397 471.01 397 472C397 472.99 398.011 474 399 474C399.989 474 401 472.99 401 472ZM401 508C401 507.01 399.989 506 399 506C398.011 506 397 507.01 397 508C397 508.99 398.011 510 399 510C399.989 510 401 508.99 401 508ZM401 544C401 543.01 399.989 542 399 542C398.011 542 397 543.01 397 544C397 544.99 398.011 546 399 546C399.989 546 401 544.99 401 544ZM401 580C401 579.01 399.989 578 399 578C398.011 578 397 579.01 397 580C397 580.99 398.011 582 399 582C399.989 582 401 580.99 401 580ZM365 2C365 1.01048 363.989 0 363 0C362.011 0 361 1.01048 361 2C361 2.98952 362.011 4 363 4C364.071 4 365 2.98952 365 2ZM365 38C365 37.0105 363.989 36 363 36C362.011 36 361 37.0105 361 38C361 38.9895 362.011 40 363 40C364.071 40 365 38.9895 365 38ZM365 74C365 73.0105 363.989 72 363 72C362.011 72 361 73.0105 361 74C361 74.9895 362.011 76 363 76C364.071 76 365 74.9895 365 74ZM365 110C365 109.01 363.989 108 363 108C362.011 108 361 109.01 361 110C361 110.99 362.011 112 363 112C364.071 112 365 110.99 365 110ZM365 146C365 145.01 363.989 145 363 145C362.011 145 361 145.01 361 146C361 146.99 362.011 148 363 148C364.071 148 365 146.99 365 146ZM365 183C365 182.01 363.989 181 363 181C362.011 181 361 182.01 361 183C361 183.99 362.011 184 363 184C364.071 184 365 183.99 365 183ZM365 219C365 218.01 363.989 217 363 217C362.011 217 361 218.01 361 219C361 219.99 362.011 220 363 220C364.071 220 365 219.99 365 219ZM365 255C365 254.01 363.989 253 363 253C362.011 253 361 254.01 361 255C361 255.99 362.011 257 363 257C364.071 257 365 256.072 365 255ZM365 291C365 290.01 363.989 289 363 289C362.011 289 361 290.01 361 291C361 291.99 362.011 293 363 293C364.071 293 365 291.99 365 291ZM365 327C365 326.01 363.989 325 363 325C362.011 325 361 326.01 361 327C361 327.99 362.011 329 363 329C364.071 329 365 327.99 365 327ZM365 363C365 362.01 363.989 362 363 362C362.011 362 361 362.01 361 363C361 363.99 362.011 365 363 365C364.071 364.918 365 363.99 365 363ZM365 399C365 398.01 363.989 398 363 398C362.011 398 361 398.01 361 399C361 399.99 362.011 401 363 401C364.071 401 365 399.99 365 399ZM365 436C365 435.01 363.989 434 363 434C362.011 434 361 435.01 361 436C361 436.99 362.011 437 363 437C364.071 437 365 436.99 365 436ZM365 472C365 471.01 363.989 470 363 470C362.011 470 361 471.01 361 472C361 472.99 362.011 474 363 474C364.071 474 365 472.99 365 472ZM365 508C365 507.01 363.989 506 363 506C362.011 506 361 507.01 361 508C361 508.99 362.011 510 363 510C364.071 510 365 508.99 365 508ZM365 544C365 543.01 363.989 542 363 542C362.011 542 361 543.01 361 544C361 544.99 362.011 546 363 546C364.071 546 365 544.99 365 544ZM365 580C365 579.01 363.989 578 363 578C362.011 578 361 579.01 361 580C361 580.99 362.011 582 363 582C364.071 582 365 580.99 365 580ZM329 2C329 1.01048 327.989 0 327 0C326.011 0 325 1.01048 325 2C325 2.98952 326.011 4 327 4C327.989 4 329 2.98952 329 2ZM329 38C329 37.0105 327.989 36 327 36C326.011 36 325 37.0105 325 38C325 38.9895 326.011 40 327 40C327.989 40 329 38.9895 329 38ZM329 74C329 73.0105 327.989 72 327 72C326.011 72 325 73.0105 325 74C325 74.9895 326.011 76 327 76C327.989 76 329 74.9895 329 74ZM329 110C329 109.01 327.989 108 327 108C326.011 108 325 109.01 325 110C325 110.99 326.011 112 327 112C327.989 112 329 110.99 329 110ZM329 146C329 145.01 327.989 145 327 145C326.011 145 325 145.01 325 146C325 146.99 326.011 148 327 148C327.989 148 329 146.99 329 146ZM329 183C329 182.01 327.989 181 327 181C326.011 181 325 182.01 325 183C325 183.99 326.011 184 327 184C327.989 184 329 183.99 329 183ZM329 219C329 218.01 327.989 217 327 217C326.011 217 325 218.01 325 219C325 219.99 326.011 220 327 220C327.989 220 329 219.99 329 219ZM329 255C329 254.01 327.989 253 327 253C326.011 253 325 254.01 325 255C325 255.99 326.011 257 327 257C327.989 257 329 256.072 329 255ZM329 291C329 290.01 327.989 289 327 289C326.011 289 325 290.01 325 291C325 291.99 326.011 293 327 293C327.989 293 329 291.99 329 291ZM329 327C329 326.01 327.989 325 327 325C326.011 325 325 326.01 325 327C325 327.99 326.011 329 327 329C327.989 329 329 327.99 329 327ZM329 363C329 362.01 327.989 362 327 362C326.011 362 325 362.01 325 363C325 363.99 326.011 365 327 365C327.989 364.918 329 363.99 329 363ZM329 399C329 398.01 327.989 398 327 398C326.011 398 325 398.01 325 399C325 399.99 326.011 401 327 401C327.989 401 329 399.99 329 399ZM329 436C329 435.01 327.989 434 327 434C326.011 434 325 435.01 325 436C325 436.99 326.011 437 327 437C327.989 437 329 436.99 329 436ZM329 472C329 471.01 327.989 470 327 470C326.011 470 325 471.01 325 472C325 472.99 326.011 474 327 474C327.989 474 329 472.99 329 472ZM329 508C329 507.01 327.989 506 327 506C326.011 506 325 507.01 325 508C325 508.99 326.011 510 327 510C327.989 510 329 508.99 329 508ZM329 544C329 543.01 327.989 542 327 542C326.011 542 325 543.01 325 544C325 544.99 326.011 546 327 546C327.989 546 329 544.99 329 544ZM329 580C329 579.01 327.989 578 327 578C326.011 578 325 579.01 325 580C325 580.99 326.011 582 327 582C327.989 582 329 580.99 329 580ZM293 2C293 1.01048 291.989 0 291 0C290.011 0 289 1.01048 289 2C289 2.98952 290.011 4 291 4C291.989 4 293 2.98952 293 2ZM293 38C293 37.0105 291.989 36 291 36C290.011 36 289 37.0105 289 38C289 38.9895 290.011 40 291 40C291.989 40 293 38.9895 293 38ZM293 74C293 73.0105 291.989 72 291 72C290.011 72 289 73.0105 289 74C289 74.9895 290.011 76 291 76C291.989 76 293 74.9895 293 74ZM293 110C293 109.01 291.989 108 291 108C290.011 108 289 109.01 289 110C289 110.99 290.011 112 291 112C291.989 112 293 110.99 293 110ZM293 146C293 145.01 291.989 145 291 145C290.011 145 289 145.01 289 146C289 146.99 290.011 148 291 148C291.989 148 293 146.99 293 146ZM293 183C293 182.01 291.989 181 291 181C290.011 181 289 182.01 289 183C289 183.99 290.011 184 291 184C291.989 184 293 183.99 293 183ZM293 219C293 218.01 291.989 217 291 217C290.011 217 289 218.01 289 219C289 219.99 290.011 220 291 220C291.989 220 293 219.99 293 219ZM293 255C293 254.01 291.989 253 291 253C290.011 253 289 254.01 289 255C289 255.99 290.011 257 291 257C291.989 257 293 256.072 293 255ZM293 291C293 290.01 291.989 289 291 289C290.011 289 289 290.01 289 291C289 291.99 290.011 293 291 293C291.989 293 293 291.99 293 291ZM293 327C293 326.01 291.989 325 291 325C290.011 325 289 326.01 289 327C289 327.99 290.011 329 291 329C291.989 329 293 327.99 293 327ZM293 363C293 362.01 291.989 362 291 362C290.011 362 289 362.01 289 363C289 363.99 290.011 365 291 365C291.989 364.918 293 363.99 293 363ZM293 399C293 398.01 291.989 398 291 398C290.011 398 289 398.01 289 399C289 399.99 290.011 401 291 401C291.989 401 293 399.99 293 399ZM293 436C293 435.01 291.989 434 291 434C290.011 434 289 435.01 289 436C289 436.99 290.011 437 291 437C291.989 437 293 436.99 293 436ZM293 472C293 471.01 291.989 470 291 470C290.011 470 289 471.01 289 472C289 472.99 290.011 474 291 474C291.989 474 293 472.99 293 472ZM293 508C293 507.01 291.989 506 291 506C290.011 506 289 507.01 289 508C289 508.99 290.011 510 291 510C291.989 510 293 508.99 293 508ZM293 544C293 543.01 291.989 542 291 542C290.011 542 289 543.01 289 544C289 544.99 290.011 546 291 546C291.989 546 293 544.99 293 544ZM293 580C293 579.01 291.989 578 291 578C290.011 578 289 579.01 289 580C289 580.99 290.011 582 291 582C291.989 582 293 580.99 293 580ZM256 2C256 1.01048 255.989 0 255 0C254.011 0 253 1.01048 253 2C253 2.98952 254.011 4 255 4C256.071 4 256 2.98952 256 2ZM256 38C256 37.0105 255.989 36 255 36C254.011 36 253 37.0105 253 38C253 38.9895 254.011 40 255 40C256.071 40 256 38.9895 256 38ZM256 74C256 73.0105 255.989 72 255 72C254.011 72 253 73.0105 253 74C253 74.9895 254.011 76 255 76C256.071 76 256 74.9895 256 74ZM256 110C256 109.01 255.989 108 255 108C254.011 108 253 109.01 253 110C253 110.99 254.011 112 255 112C256.071 112 256 110.99 256 110ZM256 146C256 145.01 255.989 145 255 145C254.011 145 253 145.01 253 146C253 146.99 254.011 148 255 148C256.071 148 256 146.99 256 146ZM256 183C256 182.01 255.989 181 255 181C254.011 181 253 182.01 253 183C253 183.99 254.011 184 255 184C256.071 184 256 183.99 256 183ZM256 219C256 218.01 255.989 217 255 217C254.011 217 253 218.01 253 219C253 219.99 254.011 220 255 220C256.071 220 256 219.99 256 219ZM256 255C256 254.01 255.989 253 255 253C254.011 253 253 254.01 253 255C253 255.99 254.011 257 255 257C256.071 257 256 256.072 256 255ZM256 291C256 290.01 255.989 289 255 289C254.011 289 253 290.01 253 291C253 291.99 254.011 293 255 293C256.071 293 256 291.99 256 291ZM256 327C256 326.01 255.989 325 255 325C254.011 325 253 326.01 253 327C253 327.99 254.011 329 255 329C256.071 329 256 327.99 256 327ZM256 363C256 362.01 255.989 362 255 362C254.011 362 253 362.01 253 363C253 363.99 254.011 365 255 365C256.071 364.918 256 363.99 256 363ZM256 399C256 398.01 255.989 398 255 398C254.011 398 253 398.01 253 399C253 399.99 254.011 401 255 401C256.071 401 256 399.99 256 399ZM256 436C256 435.01 255.989 434 255 434C254.011 434 253 435.01 253 436C253 436.99 254.011 437 255 437C256.071 437 256 436.99 256 436ZM256 472C256 471.01 255.989 470 255 470C254.011 470 253 471.01 253 472C253 472.99 254.011 474 255 474C256.071 474 256 472.99 256 472ZM256 508C256 507.01 255.989 506 255 506C254.011 506 253 507.01 253 508C253 508.99 254.011 510 255 510C256.071 510 256 508.99 256 508ZM256 544C256 543.01 255.989 542 255 542C254.011 542 253 543.01 253 544C253 544.99 254.011 546 255 546C256.071 546 256 544.99 256 544ZM256 580C256 579.01 255.989 578 255 578C254.011 578 253 579.01 253 580C253 580.99 254.011 582 255 582C256.071 582 256 580.99 256 580ZM220 2C220 1.01048 219.989 0 219 0C218.011 0 217 1.01048 217 2C217 2.98952 218.011 4 219 4C219.989 4 220 2.98952 220 2ZM220 38C220 37.0105 219.989 36 219 36C218.011 36 217 37.0105 217 38C217 38.9895 218.011 40 219 40C219.989 40 220 38.9895 220 38ZM220 74C220 73.0105 219.989 72 219 72C218.011 72 217 73.0105 217 74C217 74.9895 218.011 76 219 76C219.989 76 220 74.9895 220 74ZM220 110C220 109.01 219.989 108 219 108C218.011 108 217 109.01 217 110C217 110.99 218.011 112 219 112C219.989 112 220 110.99 220 110ZM220 146C220 145.01 219.989 145 219 145C218.011 145 217 145.01 217 146C217 146.99 218.011 148 219 148C219.989 148 220 146.99 220 146ZM220 183C220 182.01 219.989 181 219 181C218.011 181 217 182.01 217 183C217 183.99 218.011 184 219 184C219.989 184 220 183.99 220 183ZM220 219C220 218.01 219.989 217 219 217C218.011 217 217 218.01 217 219C217 219.99 218.011 220 219 220C219.989 220 220 219.99 220 219ZM220 255C220 254.01 219.989 253 219 253C218.011 253 217 254.01 217 255C217 255.99 218.011 257 219 257C219.989 257 220 256.072 220 255ZM220 291C220 290.01 219.989 289 219 289C218.011 289 217 290.01 217 291C217 291.99 218.011 293 219 293C219.989 293 220 291.99 220 291ZM220 327C220 326.01 219.989 325 219 325C218.011 325 217 326.01 217 327C217 327.99 218.011 329 219 329C219.989 329 220 327.99 220 327ZM220 363C220 362.01 219.989 362 219 362C218.011 362 217 362.01 217 363C217 363.99 218.011 365 219 365C219.989 364.918 220 363.99 220 363ZM220 399C220 398.01 219.989 398 219 398C218.011 398 217 398.01 217 399C217 399.99 218.011 401 219 401C219.989 401 220 399.99 220 399ZM220 436C220 435.01 219.989 434 219 434C218.011 434 217 435.01 217 436C217 436.99 218.011 437 219 437C219.989 437 220 436.99 220 436ZM220 472C220 471.01 219.989 470 219 470C218.011 470 217 471.01 217 472C217 472.99 218.011 474 219 474C219.989 474 220 472.99 220 472ZM220 508C220 507.01 219.989 506 219 506C218.011 506 217 507.01 217 508C217 508.99 218.011 510 219 510C219.989 510 220 508.99 220 508ZM220 544C220 543.01 219.989 542 219 542C218.011 542 217 543.01 217 544C217 544.99 218.011 546 219 546C219.989 546 220 544.99 220 544ZM220 580C220 579.01 219.989 578 219 578C218.011 578 217 579.01 217 580C217 580.99 218.011 582 219 582C219.989 582 220 580.99 220 580ZM184 2C184 1.01048 182.989 0 182 0C181.011 0 181 1.01048 181 2C181 2.98952 181.011 4 182 4C182.989 4 184 2.98952 184 2ZM184 38C184 37.0105 182.989 36 182 36C181.011 36 181 37.0105 181 38C181 38.9895 181.011 40 182 40C182.989 40 184 38.9895 184 38ZM184 74C184 73.0105 182.989 72 182 72C181.011 72 181 73.0105 181 74C181 74.9895 181.011 76 182 76C182.989 76 184 74.9895 184 74ZM184 110C184 109.01 182.989 108 182 108C181.011 108 181 109.01 181 110C181 110.99 181.011 112 182 112C182.989 112 184 110.99 184 110ZM184 146C184 145.01 182.989 145 182 145C181.011 145 181 145.01 181 146C181 146.99 181.011 148 182 148C182.989 148 184 146.99 184 146ZM184 183C184 182.01 182.989 181 182 181C181.011 181 181 182.01 181 183C181 183.99 181.011 184 182 184C182.989 184 184 183.99 184 183ZM184 219C184 218.01 182.989 217 182 217C181.011 217 181 218.01 181 219C181 219.99 181.011 220 182 220C182.989 220 184 219.99 184 219ZM184 255C184 254.01 182.989 253 182 253C181.011 253 181 254.01 181 255C181 255.99 181.011 257 182 257C182.989 257 184 256.072 184 255ZM184 291C184 290.01 182.989 289 182 289C181.011 289 181 290.01 181 291C181 291.99 181.011 293 182 293C182.989 293 184 291.99 184 291ZM184 327C184 326.01 182.989 325 182 325C181.011 325 181 326.01 181 327C181 327.99 181.011 329 182 329C182.989 329 184 327.99 184 327ZM184 363C184 362.01 182.989 362 182 362C181.011 362 181 362.01 181 363C181 363.99 181.011 365 182 365C182.989 364.918 184 363.99 184 363ZM184 399C184 398.01 182.989 398 182 398C181.011 398 181 398.01 181 399C181 399.99 181.011 401 182 401C182.989 401 184 399.99 184 399ZM184 436C184 435.01 182.989 434 182 434C181.011 434 181 435.01 181 436C181 436.99 181.011 437 182 437C182.989 437 184 436.99 184 436ZM184 472C184 471.01 182.989 470 182 470C181.011 470 181 471.01 181 472C181 472.99 181.011 474 182 474C182.989 474 184 472.99 184 472ZM184 508C184 507.01 182.989 506 182 506C181.011 506 181 507.01 181 508C181 508.99 181.011 510 182 510C182.989 510 184 508.99 184 508ZM184 544C184 543.01 182.989 542 182 542C181.011 542 181 543.01 181 544C181 544.99 181.011 546 182 546C182.989 546 184 544.99 184 544ZM184 580C184 579.01 182.989 578 182 578C181.011 578 181 579.01 181 580C181 580.99 181.011 582 182 582C182.989 582 184 580.99 184 580ZM148 2C148 1.01048 146.989 0 146 0C145.011 0 144 1.01048 144 2C144 2.98952 145.011 4 146 4C146.989 4 148 2.98952 148 2ZM148 38C148 37.0105 146.989 36 146 36C145.011 36 144 37.0105 144 38C144 38.9895 145.011 40 146 40C146.989 40 148 38.9895 148 38ZM148 74C148 73.0105 146.989 72 146 72C145.011 72 144 73.0105 144 74C144 74.9895 145.011 76 146 76C146.989 76 148 74.9895 148 74ZM148 110C148 109.01 146.989 108 146 108C145.011 108 144 109.01 144 110C144 110.99 145.011 112 146 112C146.989 112 148 110.99 148 110ZM148 146C148 145.01 146.989 145 146 145C145.011 145 144 145.01 144 146C144 146.99 145.011 148 146 148C146.989 148 148 146.99 148 146ZM148 183C148 182.01 146.989 181 146 181C145.011 181 144 182.01 144 183C144 183.99 145.011 184 146 184C146.989 184 148 183.99 148 183ZM148 219C148 218.01 146.989 217 146 217C145.011 217 144 218.01 144 219C144 219.99 145.011 220 146 220C146.989 220 148 219.99 148 219ZM148 255C148 254.01 146.989 253 146 253C145.011 253 144 254.01 144 255C144 255.99 145.011 257 146 257C146.989 257 148 256.072 148 255ZM148 291C148 290.01 146.989 289 146 289C145.011 289 144 290.01 144 291C144 291.99 145.011 293 146 293C146.989 293 148 291.99 148 291ZM148 327C148 326.01 146.989 325 146 325C145.011 325 144 326.01 144 327C144 327.99 145.011 329 146 329C146.989 329 148 327.99 148 327ZM148 363C148 362.01 146.989 362 146 362C145.011 362 144 362.01 144 363C144 363.99 145.011 365 146 365C146.989 364.918 148 363.99 148 363ZM148 399C148 398.01 146.989 398 146 398C145.011 398 144 398.01 144 399C144 399.99 145.011 401 146 401C146.989 401 148 399.99 148 399ZM148 436C148 435.01 146.989 434 146 434C145.011 434 144 435.01 144 436C144 436.99 145.011 437 146 437C146.989 437 148 436.99 148 436ZM148 472C148 471.01 146.989 470 146 470C145.011 470 144 471.01 144 472C144 472.99 145.011 474 146 474C146.989 474 148 472.99 148 472ZM148 508C148 507.01 146.989 506 146 506C145.011 506 144 507.01 144 508C144 508.99 145.011 510 146 510C146.989 510 148 508.99 148 508ZM148 544C148 543.01 146.989 542 146 542C145.011 542 144 543.01 144 544C144 544.99 145.011 546 146 546C146.989 546 148 544.99 148 544ZM148 580C148 579.01 146.989 578 146 578C145.011 578 144 579.01 144 580C144 580.99 145.011 582 146 582C146.989 582 148 580.99 148 580ZM112 2C112 1.01048 110.989 0 110 0C109.011 0 108 1.01048 108 2C108 2.98952 109.011 4 110 4C110.989 4 112 2.98952 112 2ZM112 38C112 37.0105 110.989 36 110 36C109.011 36 108 37.0105 108 38C108 38.9895 109.011 40 110 40C110.989 40 112 38.9895 112 38ZM112 74C112 73.0105 110.989 72 110 72C109.011 72 108 73.0105 108 74C108 74.9895 109.011 76 110 76C110.989 76 112 74.9895 112 74ZM112 110C112 109.01 110.989 108 110 108C109.011 108 108 109.01 108 110C108 110.99 109.011 112 110 112C110.989 112 112 110.99 112 110ZM112 146C112 145.01 110.989 145 110 145C109.011 145 108 145.01 108 146C108 146.99 109.011 148 110 148C110.989 148 112 146.99 112 146ZM112 183C112 182.01 110.989 181 110 181C109.011 181 108 182.01 108 183C108 183.99 109.011 184 110 184C110.989 184 112 183.99 112 183ZM112 219C112 218.01 110.989 217 110 217C109.011 217 108 218.01 108 219C108 219.99 109.011 220 110 220C110.989 220 112 219.99 112 219ZM112 255C112 254.01 110.989 253 110 253C109.011 253 108 254.01 108 255C108 255.99 109.011 257 110 257C110.989 257 112 256.072 112 255ZM112 291C112 290.01 110.989 289 110 289C109.011 289 108 290.01 108 291C108 291.99 109.011 293 110 293C110.989 293 112 291.99 112 291ZM112 327C112 326.01 110.989 325 110 325C109.011 325 108 326.01 108 327C108 327.99 109.011 329 110 329C110.989 329 112 327.99 112 327ZM112 363C112 362.01 110.989 362 110 362C109.011 362 108 362.01 108 363C108 363.99 109.011 365 110 365C110.989 364.918 112 363.99 112 363ZM112 399C112 398.01 110.989 398 110 398C109.011 398 108 398.01 108 399C108 399.99 109.011 401 110 401C110.989 401 112 399.99 112 399ZM112 436C112 435.01 110.989 434 110 434C109.011 434 108 435.01 108 436C108 436.99 109.011 437 110 437C110.989 437 112 436.99 112 436ZM112 472C112 471.01 110.989 470 110 470C109.011 470 108 471.01 108 472C108 472.99 109.011 474 110 474C110.989 474 112 472.99 112 472ZM112 508C112 507.01 110.989 506 110 506C109.011 506 108 507.01 108 508C108 508.99 109.011 510 110 510C110.989 510 112 508.99 112 508ZM112 544C112 543.01 110.989 542 110 542C109.011 542 108 543.01 108 544C108 544.99 109.011 546 110 546C110.989 546 112 544.99 112 544ZM112 580C112 579.01 110.989 578 110 578C109.011 578 108 579.01 108 580C108 580.99 109.011 582 110 582C110.989 582 112 580.99 112 580ZM76 2C76 1.01048 74.9891 0 74 0C73.0109 0 72 1.01048 72 2C72 2.98952 73.0109 4 74 4C74.9891 4 76 2.98952 76 2ZM76 38C76 37.0105 74.9891 36 74 36C73.0109 36 72 37.0105 72 38C72 38.9895 73.0109 40 74 40C74.9891 40 76 38.9895 76 38ZM76 74C76 73.0105 74.9891 72 74 72C73.0109 72 72 73.0105 72 74C72 74.9895 73.0109 76 74 76C74.9891 76 76 74.9895 76 74ZM76 110C76 109.01 74.9891 108 74 108C73.0109 108 72 109.01 72 110C72 110.99 73.0109 112 74 112C74.9891 112 76 110.99 76 110ZM76 146C76 145.01 74.9891 145 74 145C73.0109 145 72 145.01 72 146C72 146.99 73.0109 148 74 148C74.9891 148 76 146.99 76 146ZM76 183C76 182.01 74.9891 181 74 181C73.0109 181 72 182.01 72 183C72 183.99 73.0109 184 74 184C74.9891 184 76 183.99 76 183ZM76 219C76 218.01 74.9891 217 74 217C73.0109 217 72 218.01 72 219C72 219.99 73.0109 220 74 220C74.9891 220 76 219.99 76 219ZM76 255C76 254.01 74.9891 253 74 253C73.0109 253 72 254.01 72 255C72 255.99 73.0109 257 74 257C74.9891 257 76 256.072 76 255ZM76 291C76 290.01 74.9891 289 74 289C73.0109 289 72 290.01 72 291C72 291.99 73.0109 293 74 293C74.9891 293 76 291.99 76 291ZM76 327C76 326.01 74.9891 325 74 325C73.0109 325 72 326.01 72 327C72 327.99 73.0109 329 74 329C74.9891 329 76 327.99 76 327ZM76 363C76 362.01 74.9891 362 74 362C73.0109 362 72 362.01 72 363C72 363.99 73.0109 365 74 365C74.9891 364.918 76 363.99 76 363ZM76 399C76 398.01 74.9891 398 74 398C73.0109 398 72 398.01 72 399C72 399.99 73.0109 401 74 401C74.9891 401 76 399.99 76 399ZM76 436C76 435.01 74.9891 434 74 434C73.0109 434 72 435.01 72 436C72 436.99 73.0109 437 74 437C74.9891 437 76 436.99 76 436ZM76 472C76 471.01 74.9891 470 74 470C73.0109 470 72 471.01 72 472C72 472.99 73.0109 474 74 474C74.9891 474 76 472.99 76 472ZM76 508C76 507.01 74.9891 506 74 506C73.0109 506 72 507.01 72 508C72 508.99 73.0109 510 74 510C74.9891 510 76 508.99 76 508ZM76 544C76 543.01 74.9891 542 74 542C73.0109 542 72 543.01 72 544C72 544.99 73.0109 546 74 546C74.9891 546 76 544.99 76 544ZM76 580C76 579.01 74.9891 578 74 578C73.0109 578 72 579.01 72 580C72 580.99 73.0109 582 74 582C74.9891 582 76 580.99 76 580ZM40 2C40 1.01048 38.9891 0 38 0C37.0109 0 36 1.01048 36 2C36 2.98952 37.0109 4 38 4C38.9891 4 40 2.98952 40 2ZM40 38C40 37.0105 38.9891 36 38 36C37.0109 36 36 37.0105 36 38C36 38.9895 37.0109 40 38 40C38.9891 40 40 38.9895 40 38ZM40 74C40 73.0105 38.9891 72 38 72C37.0109 72 36 73.0105 36 74C36 74.9895 37.0109 76 38 76C38.9891 76 40 74.9895 40 74ZM40 110C40 109.01 38.9891 108 38 108C37.0109 108 36 109.01 36 110C36 110.99 37.0109 112 38 112C38.9891 112 40 110.99 40 110ZM40 146C40 145.01 38.9891 145 38 145C37.0109 145 36 145.01 36 146C36 146.99 37.0109 148 38 148C38.9891 148 40 146.99 40 146ZM40 183C40 182.01 38.9891 181 38 181C37.0109 181 36 182.01 36 183C36 183.99 37.0109 184 38 184C38.9891 184 40 183.99 40 183ZM40 219C40 218.01 38.9891 217 38 217C37.0109 217 36 218.01 36 219C36 219.99 37.0109 220 38 220C38.9891 220 40 219.99 40 219ZM40 255C40 254.01 38.9891 253 38 253C37.0109 253 36 254.01 36 255C36 255.99 37.0109 257 38 257C38.9891 257 40 256.072 40 255ZM40 291C40 290.01 38.9891 289 38 289C37.0109 289 36 290.01 36 291C36 291.99 37.0109 293 38 293C38.9891 293 40 291.99 40 291ZM40 327C40 326.01 38.9891 325 38 325C37.0109 325 36 326.01 36 327C36 327.99 37.0109 329 38 329C38.9891 329 40 327.99 40 327ZM40 363C40 362.01 38.9891 362 38 362C37.0109 362 36 362.01 36 363C36 363.99 37.0109 365 38 365C38.9891 364.918 40 363.99 40 363ZM40 399C40 398.01 38.9891 398 38 398C37.0109 398 36 398.01 36 399C36 399.99 37.0109 401 38 401C38.9891 401 40 399.99 40 399ZM40 436C40 435.01 38.9891 434 38 434C37.0109 434 36 435.01 36 436C36 436.99 37.0109 437 38 437C38.9891 437 40 436.99 40 436ZM40 472C40 471.01 38.9891 470 38 470C37.0109 470 36 471.01 36 472C36 472.99 37.0109 474 38 474C38.9891 474 40 472.99 40 472ZM40 508C40 507.01 38.9891 506 38 506C37.0109 506 36 507.01 36 508C36 508.99 37.0109 510 38 510C38.9891 510 40 508.99 40 508ZM40 544C40 543.01 38.9891 542 38 542C37.0109 542 36 543.01 36 544C36 544.99 37.0109 546 38 546C38.9891 546 40 544.99 40 544ZM38 582C37.0109 582 36 580.99 36 580C36 579.01 37.0109 578 38 578C38.9891 578 40 579.01 40 580C40 580.99 38.9891 582 38 582Z" fill="#DDDDDD"/>
</svg>
